<mxfile host="app.diagrams.net" agent="Mozilla/5.0 (Windows NT 10.0; Win64; x64) AppleWebKit/537.36 (KHTML, like Gecko) Chrome/131.0.0.0 Safari/537.36" version="25.0.3">
  <diagram name="Page-1" id="Swh69epRy-cZ5Dxx_xbL">
    <mxGraphModel dx="4435" dy="1865" grid="1" gridSize="10" guides="1" tooltips="1" connect="1" arrows="1" fold="1" page="1" pageScale="1" pageWidth="850" pageHeight="1100" math="0" shadow="0">
      <root>
        <mxCell id="0" />
        <mxCell id="1" parent="0" />
        <mxCell id="L560fXxDKEhZ5m2lBojk-10" style="edgeStyle=orthogonalEdgeStyle;rounded=0;orthogonalLoop=1;jettySize=auto;html=1;entryX=0.5;entryY=0;entryDx=0;entryDy=0;" edge="1" parent="1" source="L560fXxDKEhZ5m2lBojk-1" target="L560fXxDKEhZ5m2lBojk-4">
          <mxGeometry relative="1" as="geometry" />
        </mxCell>
        <mxCell id="L560fXxDKEhZ5m2lBojk-1" value="&lt;font style=&quot;font-size: 24px;&quot;&gt;start&lt;/font&gt;" style="strokeWidth=2;html=1;shape=mxgraph.flowchart.start_1;whiteSpace=wrap;" vertex="1" parent="1">
          <mxGeometry x="-700" y="60" width="100" height="60" as="geometry" />
        </mxCell>
        <mxCell id="L560fXxDKEhZ5m2lBojk-2" value="output 1.0 + (i * 0.2), multiolier_count[i]" style="shape=parallelogram;perimeter=parallelogramPerimeter;whiteSpace=wrap;html=1;fixedSize=1;" vertex="1" parent="1">
          <mxGeometry x="-530" y="1390" width="140" height="40" as="geometry" />
        </mxCell>
        <mxCell id="L560fXxDKEhZ5m2lBojk-3" value="&lt;font style=&quot;font-size: 24px;&quot;&gt;end&lt;/font&gt;" style="strokeWidth=2;html=1;shape=mxgraph.flowchart.start_1;whiteSpace=wrap;" vertex="1" parent="1">
          <mxGeometry x="-700" y="1650" width="100" height="60" as="geometry" />
        </mxCell>
        <mxCell id="L560fXxDKEhZ5m2lBojk-11" style="edgeStyle=orthogonalEdgeStyle;rounded=0;orthogonalLoop=1;jettySize=auto;html=1;entryX=0.5;entryY=0;entryDx=0;entryDy=0;" edge="1" parent="1" source="L560fXxDKEhZ5m2lBojk-4" target="L560fXxDKEhZ5m2lBojk-8">
          <mxGeometry relative="1" as="geometry" />
        </mxCell>
        <mxCell id="L560fXxDKEhZ5m2lBojk-4" value="Employee employees[MAX_EMPLOYEES]" style="rounded=1;whiteSpace=wrap;html=1;absoluteArcSize=1;arcSize=14;strokeWidth=2;" vertex="1" parent="1">
          <mxGeometry x="-740" y="160" width="180" height="40" as="geometry" />
        </mxCell>
        <mxCell id="L560fXxDKEhZ5m2lBojk-38" style="edgeStyle=orthogonalEdgeStyle;rounded=0;orthogonalLoop=1;jettySize=auto;html=1;entryX=0.5;entryY=0;entryDx=0;entryDy=0;" edge="1" parent="1" source="L560fXxDKEhZ5m2lBojk-5" target="L560fXxDKEhZ5m2lBojk-2">
          <mxGeometry relative="1" as="geometry" />
        </mxCell>
        <mxCell id="L560fXxDKEhZ5m2lBojk-42" style="edgeStyle=orthogonalEdgeStyle;rounded=0;orthogonalLoop=1;jettySize=auto;html=1;entryX=0.5;entryY=0;entryDx=0;entryDy=0;" edge="1" parent="1" source="L560fXxDKEhZ5m2lBojk-5" target="L560fXxDKEhZ5m2lBojk-40">
          <mxGeometry relative="1" as="geometry" />
        </mxCell>
        <mxCell id="L560fXxDKEhZ5m2lBojk-5" value="for (i &amp;lt; MULTIPLIER_LEVELS, i++)" style="rhombus;whiteSpace=wrap;html=1;" vertex="1" parent="1">
          <mxGeometry x="-756.25" y="1290" width="212.5" height="80" as="geometry" />
        </mxCell>
        <mxCell id="L560fXxDKEhZ5m2lBojk-6" value="Employee = {name, exp, multiplier}" style="strokeWidth=2;html=1;shape=mxgraph.flowchart.start_1;whiteSpace=wrap;" vertex="1" parent="1">
          <mxGeometry x="-358.75" y="60" width="210" height="60" as="geometry" />
        </mxCell>
        <mxCell id="L560fXxDKEhZ5m2lBojk-49" style="edgeStyle=orthogonalEdgeStyle;rounded=0;orthogonalLoop=1;jettySize=auto;html=1;entryX=0.5;entryY=0;entryDx=0;entryDy=0;" edge="1" parent="1" source="L560fXxDKEhZ5m2lBojk-7" target="L560fXxDKEhZ5m2lBojk-35">
          <mxGeometry relative="1" as="geometry" />
        </mxCell>
        <mxCell id="L560fXxDKEhZ5m2lBojk-7" value="get_multiplier(exp, *multiplier, *index)" style="strokeWidth=2;html=1;shape=mxgraph.flowchart.start_1;whiteSpace=wrap;" vertex="1" parent="1">
          <mxGeometry x="310" y="60" width="210" height="60" as="geometry" />
        </mxCell>
        <mxCell id="L560fXxDKEhZ5m2lBojk-12" style="edgeStyle=orthogonalEdgeStyle;rounded=0;orthogonalLoop=1;jettySize=auto;html=1;entryX=0.5;entryY=0;entryDx=0;entryDy=0;" edge="1" parent="1" source="L560fXxDKEhZ5m2lBojk-8" target="L560fXxDKEhZ5m2lBojk-9">
          <mxGeometry relative="1" as="geometry" />
        </mxCell>
        <mxCell id="L560fXxDKEhZ5m2lBojk-36" style="edgeStyle=orthogonalEdgeStyle;rounded=0;orthogonalLoop=1;jettySize=auto;html=1;entryX=0.5;entryY=0;entryDx=0;entryDy=0;" edge="1" parent="1" source="L560fXxDKEhZ5m2lBojk-8" target="L560fXxDKEhZ5m2lBojk-5">
          <mxGeometry relative="1" as="geometry" />
        </mxCell>
        <mxCell id="L560fXxDKEhZ5m2lBojk-8" value="while (count &amp;lt; Max_EMPLOYEES &amp;amp;&amp;amp; scanf(name) == 1" style="rhombus;whiteSpace=wrap;html=1;" vertex="1" parent="1">
          <mxGeometry x="-777.5" y="260" width="255" height="100" as="geometry" />
        </mxCell>
        <mxCell id="L560fXxDKEhZ5m2lBojk-16" style="edgeStyle=orthogonalEdgeStyle;rounded=0;orthogonalLoop=1;jettySize=auto;html=1;entryX=0.5;entryY=0;entryDx=0;entryDy=0;" edge="1" parent="1" source="L560fXxDKEhZ5m2lBojk-9" target="L560fXxDKEhZ5m2lBojk-14">
          <mxGeometry relative="1" as="geometry" />
        </mxCell>
        <mxCell id="L560fXxDKEhZ5m2lBojk-9" value="if (scanf(&quot;%d&quot;, &amp;amp;employees[count].exp) != 1)" style="rhombus;whiteSpace=wrap;html=1;" vertex="1" parent="1">
          <mxGeometry x="-520" y="390" width="240" height="130" as="geometry" />
        </mxCell>
        <mxCell id="L560fXxDKEhZ5m2lBojk-18" style="edgeStyle=orthogonalEdgeStyle;rounded=0;orthogonalLoop=1;jettySize=auto;html=1;entryX=0.5;entryY=0;entryDx=0;entryDy=0;" edge="1" parent="1" source="L560fXxDKEhZ5m2lBojk-14" target="L560fXxDKEhZ5m2lBojk-17">
          <mxGeometry relative="1" as="geometry" />
        </mxCell>
        <mxCell id="L560fXxDKEhZ5m2lBojk-14" value="get_multiplier(employee[count].exp, employee[count].multiplier, index)" style="verticalLabelPosition=bottom;verticalAlign=top;html=1;shape=process;whiteSpace=wrap;rounded=1;size=0.14;arcSize=6;" vertex="1" parent="1">
          <mxGeometry x="-468" y="600" width="136" height="30" as="geometry" />
        </mxCell>
        <mxCell id="L560fXxDKEhZ5m2lBojk-37" style="edgeStyle=orthogonalEdgeStyle;rounded=0;orthogonalLoop=1;jettySize=auto;html=1;entryX=0.5;entryY=0;entryDx=0;entryDy=0;" edge="1" parent="1" source="L560fXxDKEhZ5m2lBojk-17" target="L560fXxDKEhZ5m2lBojk-19">
          <mxGeometry relative="1" as="geometry" />
        </mxCell>
        <mxCell id="L560fXxDKEhZ5m2lBojk-17" value="multiplier_count[index]++" style="rounded=1;whiteSpace=wrap;html=1;absoluteArcSize=1;arcSize=14;strokeWidth=2;" vertex="1" parent="1">
          <mxGeometry x="-490" y="710" width="180" height="40" as="geometry" />
        </mxCell>
        <mxCell id="L560fXxDKEhZ5m2lBojk-21" style="edgeStyle=orthogonalEdgeStyle;rounded=0;orthogonalLoop=1;jettySize=auto;html=1;entryX=0.5;entryY=0;entryDx=0;entryDy=0;" edge="1" parent="1" source="L560fXxDKEhZ5m2lBojk-19" target="L560fXxDKEhZ5m2lBojk-20">
          <mxGeometry relative="1" as="geometry" />
        </mxCell>
        <mxCell id="L560fXxDKEhZ5m2lBojk-33" style="edgeStyle=orthogonalEdgeStyle;rounded=0;orthogonalLoop=1;jettySize=auto;html=1;entryX=0.5;entryY=0;entryDx=0;entryDy=0;" edge="1" parent="1" source="L560fXxDKEhZ5m2lBojk-19" target="L560fXxDKEhZ5m2lBojk-29">
          <mxGeometry relative="1" as="geometry" />
        </mxCell>
        <mxCell id="L560fXxDKEhZ5m2lBojk-19" value="if (employees[count].multiplier &amp;gt; highest.multiplier)" style="rhombus;whiteSpace=wrap;html=1;" vertex="1" parent="1">
          <mxGeometry x="-506.25" y="800" width="212.5" height="80" as="geometry" />
        </mxCell>
        <mxCell id="L560fXxDKEhZ5m2lBojk-24" style="edgeStyle=orthogonalEdgeStyle;rounded=0;orthogonalLoop=1;jettySize=auto;html=1;entryX=0.5;entryY=0;entryDx=0;entryDy=0;" edge="1" parent="1" source="L560fXxDKEhZ5m2lBojk-20" target="L560fXxDKEhZ5m2lBojk-22">
          <mxGeometry relative="1" as="geometry" />
        </mxCell>
        <mxCell id="L560fXxDKEhZ5m2lBojk-20" value="highest = employees[count]" style="rounded=1;whiteSpace=wrap;html=1;absoluteArcSize=1;arcSize=14;strokeWidth=2;" vertex="1" parent="1">
          <mxGeometry x="-280" y="900" width="180" height="40" as="geometry" />
        </mxCell>
        <mxCell id="L560fXxDKEhZ5m2lBojk-28" style="edgeStyle=orthogonalEdgeStyle;rounded=0;orthogonalLoop=1;jettySize=auto;html=1;entryX=0.5;entryY=0;entryDx=0;entryDy=0;" edge="1" parent="1" source="L560fXxDKEhZ5m2lBojk-22" target="L560fXxDKEhZ5m2lBojk-27">
          <mxGeometry relative="1" as="geometry" />
        </mxCell>
        <mxCell id="L560fXxDKEhZ5m2lBojk-31" style="edgeStyle=orthogonalEdgeStyle;rounded=0;orthogonalLoop=1;jettySize=auto;html=1;entryX=0.5;entryY=0;entryDx=0;entryDy=0;" edge="1" parent="1" source="L560fXxDKEhZ5m2lBojk-22" target="L560fXxDKEhZ5m2lBojk-29">
          <mxGeometry relative="1" as="geometry" />
        </mxCell>
        <mxCell id="L560fXxDKEhZ5m2lBojk-22" value="if (employees[count].multiplier &amp;lt; lowest.multiplier)" style="rhombus;whiteSpace=wrap;html=1;" vertex="1" parent="1">
          <mxGeometry x="-296.25" y="980" width="212.5" height="80" as="geometry" />
        </mxCell>
        <mxCell id="L560fXxDKEhZ5m2lBojk-26" style="edgeStyle=orthogonalEdgeStyle;rounded=0;orthogonalLoop=1;jettySize=auto;html=1;entryX=1;entryY=0.5;entryDx=0;entryDy=0;entryPerimeter=0;exitX=1;exitY=0.5;exitDx=0;exitDy=0;" edge="1" parent="1" source="L560fXxDKEhZ5m2lBojk-9" target="L560fXxDKEhZ5m2lBojk-3">
          <mxGeometry relative="1" as="geometry">
            <Array as="points">
              <mxPoint x="210" y="455" />
              <mxPoint x="210" y="1680" />
            </Array>
          </mxGeometry>
        </mxCell>
        <mxCell id="L560fXxDKEhZ5m2lBojk-30" style="edgeStyle=orthogonalEdgeStyle;rounded=0;orthogonalLoop=1;jettySize=auto;html=1;entryX=0.5;entryY=0;entryDx=0;entryDy=0;" edge="1" parent="1" source="L560fXxDKEhZ5m2lBojk-27" target="L560fXxDKEhZ5m2lBojk-29">
          <mxGeometry relative="1" as="geometry" />
        </mxCell>
        <mxCell id="L560fXxDKEhZ5m2lBojk-27" value="lowest = employees[count]" style="rounded=1;whiteSpace=wrap;html=1;absoluteArcSize=1;arcSize=14;strokeWidth=2;" vertex="1" parent="1">
          <mxGeometry x="-80" y="1070" width="180" height="40" as="geometry" />
        </mxCell>
        <mxCell id="L560fXxDKEhZ5m2lBojk-34" style="edgeStyle=orthogonalEdgeStyle;rounded=0;orthogonalLoop=1;jettySize=auto;html=1;entryX=1;entryY=1;entryDx=0;entryDy=0;" edge="1" parent="1" source="L560fXxDKEhZ5m2lBojk-29" target="L560fXxDKEhZ5m2lBojk-8">
          <mxGeometry relative="1" as="geometry" />
        </mxCell>
        <mxCell id="L560fXxDKEhZ5m2lBojk-29" value="count++" style="rounded=1;whiteSpace=wrap;html=1;absoluteArcSize=1;arcSize=14;strokeWidth=2;" vertex="1" parent="1">
          <mxGeometry x="-490" y="1210" width="180" height="40" as="geometry" />
        </mxCell>
        <mxCell id="L560fXxDKEhZ5m2lBojk-50" style="edgeStyle=orthogonalEdgeStyle;rounded=0;orthogonalLoop=1;jettySize=auto;html=1;entryX=0.5;entryY=0;entryDx=0;entryDy=0;" edge="1" parent="1" source="L560fXxDKEhZ5m2lBojk-35" target="L560fXxDKEhZ5m2lBojk-45">
          <mxGeometry relative="1" as="geometry" />
        </mxCell>
        <mxCell id="L560fXxDKEhZ5m2lBojk-57" style="edgeStyle=orthogonalEdgeStyle;rounded=0;orthogonalLoop=1;jettySize=auto;html=1;entryX=0.5;entryY=0;entryDx=0;entryDy=0;" edge="1" parent="1" source="L560fXxDKEhZ5m2lBojk-35" target="L560fXxDKEhZ5m2lBojk-56">
          <mxGeometry relative="1" as="geometry" />
        </mxCell>
        <mxCell id="L560fXxDKEhZ5m2lBojk-35" value="if (exp &amp;lt; 1000)" style="rhombus;whiteSpace=wrap;html=1;" vertex="1" parent="1">
          <mxGeometry x="344.5" y="160" width="141" height="50" as="geometry" />
        </mxCell>
        <mxCell id="L560fXxDKEhZ5m2lBojk-39" style="edgeStyle=orthogonalEdgeStyle;rounded=0;orthogonalLoop=1;jettySize=auto;html=1;entryX=1;entryY=1;entryDx=0;entryDy=0;" edge="1" parent="1" source="L560fXxDKEhZ5m2lBojk-2" target="L560fXxDKEhZ5m2lBojk-5">
          <mxGeometry relative="1" as="geometry" />
        </mxCell>
        <mxCell id="L560fXxDKEhZ5m2lBojk-43" style="edgeStyle=orthogonalEdgeStyle;rounded=0;orthogonalLoop=1;jettySize=auto;html=1;entryX=0.5;entryY=0;entryDx=0;entryDy=0;" edge="1" parent="1" source="L560fXxDKEhZ5m2lBojk-40" target="L560fXxDKEhZ5m2lBojk-41">
          <mxGeometry relative="1" as="geometry" />
        </mxCell>
        <mxCell id="L560fXxDKEhZ5m2lBojk-40" value="output highest.name" style="shape=parallelogram;perimeter=parallelogramPerimeter;whiteSpace=wrap;html=1;fixedSize=1;" vertex="1" parent="1">
          <mxGeometry x="-720" y="1450" width="140" height="40" as="geometry" />
        </mxCell>
        <mxCell id="L560fXxDKEhZ5m2lBojk-44" style="edgeStyle=orthogonalEdgeStyle;rounded=0;orthogonalLoop=1;jettySize=auto;html=1;" edge="1" parent="1" source="L560fXxDKEhZ5m2lBojk-41" target="L560fXxDKEhZ5m2lBojk-3">
          <mxGeometry relative="1" as="geometry" />
        </mxCell>
        <mxCell id="L560fXxDKEhZ5m2lBojk-41" value="output lowest.name" style="shape=parallelogram;perimeter=parallelogramPerimeter;whiteSpace=wrap;html=1;fixedSize=1;" vertex="1" parent="1">
          <mxGeometry x="-720" y="1520" width="140" height="40" as="geometry" />
        </mxCell>
        <mxCell id="L560fXxDKEhZ5m2lBojk-51" style="edgeStyle=orthogonalEdgeStyle;rounded=0;orthogonalLoop=1;jettySize=auto;html=1;entryX=0.5;entryY=0;entryDx=0;entryDy=0;" edge="1" parent="1" source="L560fXxDKEhZ5m2lBojk-45" target="L560fXxDKEhZ5m2lBojk-46">
          <mxGeometry relative="1" as="geometry" />
        </mxCell>
        <mxCell id="L560fXxDKEhZ5m2lBojk-59" style="edgeStyle=orthogonalEdgeStyle;rounded=0;orthogonalLoop=1;jettySize=auto;html=1;entryX=0.5;entryY=0;entryDx=0;entryDy=0;" edge="1" parent="1" source="L560fXxDKEhZ5m2lBojk-45" target="L560fXxDKEhZ5m2lBojk-58">
          <mxGeometry relative="1" as="geometry" />
        </mxCell>
        <mxCell id="L560fXxDKEhZ5m2lBojk-45" value="else if (exp &amp;lt; 2000)" style="rhombus;whiteSpace=wrap;html=1;" vertex="1" parent="1">
          <mxGeometry x="490" y="230" width="141" height="50" as="geometry" />
        </mxCell>
        <mxCell id="L560fXxDKEhZ5m2lBojk-52" style="edgeStyle=orthogonalEdgeStyle;rounded=0;orthogonalLoop=1;jettySize=auto;html=1;entryX=0.5;entryY=0;entryDx=0;entryDy=0;" edge="1" parent="1" source="L560fXxDKEhZ5m2lBojk-46" target="L560fXxDKEhZ5m2lBojk-47">
          <mxGeometry relative="1" as="geometry" />
        </mxCell>
        <mxCell id="L560fXxDKEhZ5m2lBojk-63" style="edgeStyle=orthogonalEdgeStyle;rounded=0;orthogonalLoop=1;jettySize=auto;html=1;entryX=0.5;entryY=0;entryDx=0;entryDy=0;" edge="1" parent="1" source="L560fXxDKEhZ5m2lBojk-46" target="L560fXxDKEhZ5m2lBojk-60">
          <mxGeometry relative="1" as="geometry" />
        </mxCell>
        <mxCell id="L560fXxDKEhZ5m2lBojk-46" value="else if (exp &amp;lt; 3000)" style="rhombus;whiteSpace=wrap;html=1;" vertex="1" parent="1">
          <mxGeometry x="640" y="310" width="141" height="50" as="geometry" />
        </mxCell>
        <mxCell id="L560fXxDKEhZ5m2lBojk-53" style="edgeStyle=orthogonalEdgeStyle;rounded=0;orthogonalLoop=1;jettySize=auto;html=1;entryX=0.5;entryY=0;entryDx=0;entryDy=0;" edge="1" parent="1" source="L560fXxDKEhZ5m2lBojk-47" target="L560fXxDKEhZ5m2lBojk-48">
          <mxGeometry relative="1" as="geometry" />
        </mxCell>
        <mxCell id="L560fXxDKEhZ5m2lBojk-64" style="edgeStyle=orthogonalEdgeStyle;rounded=0;orthogonalLoop=1;jettySize=auto;html=1;entryX=0.5;entryY=0;entryDx=0;entryDy=0;" edge="1" parent="1" source="L560fXxDKEhZ5m2lBojk-47" target="L560fXxDKEhZ5m2lBojk-61">
          <mxGeometry relative="1" as="geometry" />
        </mxCell>
        <mxCell id="L560fXxDKEhZ5m2lBojk-47" value="else if (exp &amp;lt; 4000)" style="rhombus;whiteSpace=wrap;html=1;" vertex="1" parent="1">
          <mxGeometry x="790" y="380" width="141" height="50" as="geometry" />
        </mxCell>
        <mxCell id="L560fXxDKEhZ5m2lBojk-65" style="edgeStyle=orthogonalEdgeStyle;rounded=0;orthogonalLoop=1;jettySize=auto;html=1;entryX=0.5;entryY=0;entryDx=0;entryDy=0;" edge="1" parent="1" source="L560fXxDKEhZ5m2lBojk-48" target="L560fXxDKEhZ5m2lBojk-62">
          <mxGeometry relative="1" as="geometry" />
        </mxCell>
        <mxCell id="L560fXxDKEhZ5m2lBojk-67" style="edgeStyle=orthogonalEdgeStyle;rounded=0;orthogonalLoop=1;jettySize=auto;html=1;entryX=0.5;entryY=0;entryDx=0;entryDy=0;" edge="1" parent="1" source="L560fXxDKEhZ5m2lBojk-48" target="L560fXxDKEhZ5m2lBojk-66">
          <mxGeometry relative="1" as="geometry" />
        </mxCell>
        <mxCell id="L560fXxDKEhZ5m2lBojk-48" value="else if (exp &amp;lt; 5000)" style="rhombus;whiteSpace=wrap;html=1;" vertex="1" parent="1">
          <mxGeometry x="940" y="450" width="141" height="50" as="geometry" />
        </mxCell>
        <mxCell id="L560fXxDKEhZ5m2lBojk-54" value="&lt;font style=&quot;font-size: 24px;&quot;&gt;end&lt;/font&gt;" style="strokeWidth=2;html=1;shape=mxgraph.flowchart.start_1;whiteSpace=wrap;" vertex="1" parent="1">
          <mxGeometry x="365" y="690" width="100" height="60" as="geometry" />
        </mxCell>
        <mxCell id="L560fXxDKEhZ5m2lBojk-75" style="edgeStyle=orthogonalEdgeStyle;rounded=0;orthogonalLoop=1;jettySize=auto;html=1;" edge="1" parent="1" source="L560fXxDKEhZ5m2lBojk-56">
          <mxGeometry relative="1" as="geometry">
            <mxPoint x="415" y="690" as="targetPoint" />
          </mxGeometry>
        </mxCell>
        <mxCell id="L560fXxDKEhZ5m2lBojk-56" value="*multiplier = 1, *index = 0" style="rounded=1;whiteSpace=wrap;html=1;absoluteArcSize=1;arcSize=14;strokeWidth=2;" vertex="1" parent="1">
          <mxGeometry x="342.5" y="270" width="145" height="40" as="geometry" />
        </mxCell>
        <mxCell id="L560fXxDKEhZ5m2lBojk-58" value="*multiplier = 1.2, *index = 1" style="rounded=1;whiteSpace=wrap;html=1;absoluteArcSize=1;arcSize=14;strokeWidth=2;" vertex="1" parent="1">
          <mxGeometry x="483.25" y="370" width="154.5" height="40" as="geometry" />
        </mxCell>
        <mxCell id="L560fXxDKEhZ5m2lBojk-60" value="*multiplier = 1.4, *index = 2" style="rounded=1;whiteSpace=wrap;html=1;absoluteArcSize=1;arcSize=14;strokeWidth=2;" vertex="1" parent="1">
          <mxGeometry x="633.25" y="450" width="154.5" height="40" as="geometry" />
        </mxCell>
        <mxCell id="L560fXxDKEhZ5m2lBojk-61" value="*multiplier = 1.6, *index = 3" style="rounded=1;whiteSpace=wrap;html=1;absoluteArcSize=1;arcSize=14;strokeWidth=2;" vertex="1" parent="1">
          <mxGeometry x="783.25" y="530" width="154.5" height="40" as="geometry" />
        </mxCell>
        <mxCell id="L560fXxDKEhZ5m2lBojk-62" value="*multiplier = 1.8, *index = 4" style="rounded=1;whiteSpace=wrap;html=1;absoluteArcSize=1;arcSize=14;strokeWidth=2;" vertex="1" parent="1">
          <mxGeometry x="933.25" y="600" width="154.5" height="40" as="geometry" />
        </mxCell>
        <mxCell id="L560fXxDKEhZ5m2lBojk-66" value="*multiplier = 2, *index = 5" style="rounded=1;whiteSpace=wrap;html=1;absoluteArcSize=1;arcSize=14;strokeWidth=2;" vertex="1" parent="1">
          <mxGeometry x="1110" y="600" width="154.5" height="40" as="geometry" />
        </mxCell>
        <mxCell id="L560fXxDKEhZ5m2lBojk-68" style="edgeStyle=orthogonalEdgeStyle;rounded=0;orthogonalLoop=1;jettySize=auto;html=1;entryX=1;entryY=0.5;entryDx=0;entryDy=0;entryPerimeter=0;exitX=0.5;exitY=1;exitDx=0;exitDy=0;" edge="1" parent="1" source="L560fXxDKEhZ5m2lBojk-66" target="L560fXxDKEhZ5m2lBojk-54">
          <mxGeometry relative="1" as="geometry" />
        </mxCell>
        <mxCell id="L560fXxDKEhZ5m2lBojk-71" style="edgeStyle=orthogonalEdgeStyle;rounded=0;orthogonalLoop=1;jettySize=auto;html=1;entryX=1;entryY=0.5;entryDx=0;entryDy=0;entryPerimeter=0;" edge="1" parent="1" source="L560fXxDKEhZ5m2lBojk-62" target="L560fXxDKEhZ5m2lBojk-54">
          <mxGeometry relative="1" as="geometry" />
        </mxCell>
        <mxCell id="L560fXxDKEhZ5m2lBojk-72" style="edgeStyle=orthogonalEdgeStyle;rounded=0;orthogonalLoop=1;jettySize=auto;html=1;entryX=1;entryY=0.5;entryDx=0;entryDy=0;entryPerimeter=0;" edge="1" parent="1" source="L560fXxDKEhZ5m2lBojk-61" target="L560fXxDKEhZ5m2lBojk-54">
          <mxGeometry relative="1" as="geometry" />
        </mxCell>
        <mxCell id="L560fXxDKEhZ5m2lBojk-73" style="edgeStyle=orthogonalEdgeStyle;rounded=0;orthogonalLoop=1;jettySize=auto;html=1;entryX=0.5;entryY=0;entryDx=0;entryDy=0;entryPerimeter=0;" edge="1" parent="1" source="L560fXxDKEhZ5m2lBojk-60" target="L560fXxDKEhZ5m2lBojk-54">
          <mxGeometry relative="1" as="geometry" />
        </mxCell>
        <mxCell id="L560fXxDKEhZ5m2lBojk-74" style="edgeStyle=orthogonalEdgeStyle;rounded=0;orthogonalLoop=1;jettySize=auto;html=1;entryX=0.5;entryY=0;entryDx=0;entryDy=0;entryPerimeter=0;" edge="1" parent="1" source="L560fXxDKEhZ5m2lBojk-58" target="L560fXxDKEhZ5m2lBojk-54">
          <mxGeometry relative="1" as="geometry" />
        </mxCell>
      </root>
    </mxGraphModel>
  </diagram>
</mxfile>
